<?xml version="1.0" encoding="UTF-8" standalone="no"?><!DOCTYPE svg PUBLIC "-//W3C//DTD SVG 1.1//EN" "http://www.w3.org/Graphics/SVG/1.1/DTD/svg11.dtd"><svg width="100%" height="100%" viewBox="0 0 802 801" version="1.1" xmlns="http://www.w3.org/2000/svg" xmlns:xlink="http://www.w3.org/1999/xlink" xml:space="preserve" xmlns:serif="http://www.serif.com/" style="fill-rule:evenodd;clip-rule:evenodd;stroke-linejoin:round;stroke-miterlimit:2;"><g id="Logo"><path d="M400.658,0l400,336.527l-400,463.473l-400,-463.473l400,-336.527Z" style="fill:#fff;fill-opacity:0;"/><path d="M800.658,336.527l-400,463.473l-400,-463.473l400,-336.527l400,336.527Zm-794.325,0.453l394.325,456.898l394.325,-456.898l-394.325,-331.753l-394.325,331.753Z"/><path d="M400.658,800l400,-336.527l-400,-463.473l-400,463.473l400,336.527Z" style="fill:#fff;fill-opacity:0;"/><path d="M800.658,463.473l-400,336.527l-400,-336.527l400,-463.473l400,463.473Zm-794.325,-0.453l394.325,331.753l394.325,-331.753l-394.325,-456.898l-394.325,456.898Z"/><path d="M797.774,335.194l-0.002,4l-794.167,-0.257l0.001,-4l794.168,0.257Z"/><path d="M402.728,3.74l-0.031,793.141l-4,0l0.031,-793.141l4,0Z"/><path d="M401.265,339.204l-396.609,125.965l-1.21,-3.812l396.609,-125.966l1.21,3.813Z"/><path d="M798.202,461.461l-1.212,3.813l-397.016,-126.131l1.211,-3.813l397.017,126.131Z"/></g></svg>